<svg>
    <symbol id="search" xmlns="http://www.w3.org/2000/svg" viewBox="0 0 32 32">
        <path d="M28.591 27.273l-7.263-7.264c1.46-1.756 2.339-4.010 2.339-6.471 0-5.595-4.535-10.129-10.129-10.129-5.594 0-10.129 4.535-10.129 10.129 0 5.594 4.536 10.129 10.129 10.129 2.462 0 4.716-0.879 6.471-2.339l7.263 7.264 1.319-1.319zM4.475 13.538c0-4.997 4.065-9.063 9.063-9.063 4.997 0 9.063 4.066 9.063 9.063s-4.066 9.063-9.063 9.063c-4.998 0-9.063-4.066-9.063-9.063z"></path>
    </symbol>

    <symbol id="down" xmlns="http://www.w3.org/2000/svg" viewBox="0 0 15 9">
        <path d="M4.125,4.651 L0.750,1.276 L1.594,0.432 L7.500,6.339 L13.406,0.362 L14.250,1.206 L7.500,8.026 L6.656,7.183 L4.125,4.651 Z"/>
    </symbol>

    <symbol id="plus" xmlns="http://www.w3.org/2000/svg" viewBox="0 0 496 496">
		<path d="M488,240H256V8c0-4.418-3.582-8-8-8s-8,3.582-8,8v232H8c-4.418,0-8,3.582-8,8s3.582,8,8,8h232v232c0,4.418,3.582,8,8,8s8-3.582,8-8V256h232c4.418,0,8-3.582,8-8S492.418,240,488,240z"/>
    </symbol>
</svg>